<svg fill="none" height="20" viewBox="0 0 15 20" width="15" xmlns="http://www.w3.org/2000/svg"><path clip-rule="evenodd" d="m13.9645 15.8912c0 .2716-.215.492-.4801.492h-4.25675-.00778-7.7051c-.26427 0-.47844-.2204-.47844-.492v-5.1585c0-3.65217 2.89913-6.62385 6.4641-6.62385 3.56407 0 6.46407 2.97168 6.46407 6.62385zm-6.46407 3.0469c-.72629 0-1.317-.6054-1.317-1.3496 0-.0487.00259-.0965.00691-.1443h2.62018c.00432.0478.00691.0956.00691.1443 0 .7442-.59157 1.3496-1.317 1.3496zm1.62445-15.7089c.23317-.33451.37049-.74247.37049-1.18495 0-1.129206-.89297-2.04425-1.99494-2.04425-1.10196 0-1.99493.915044-1.99493 2.04425 0 .44248.13731.85044.36962 1.18495-3.35684.76284-5.87512 3.83629-5.87512 7.5035v5.1585c0 .8566.679659 1.553 1.51477 1.553h3.63665c-.00259.0478-.00432.0956-.00432.1443 0 1.3301 1.05533 2.4115 2.35333 2.4115s2.35247-1.0814 2.35247-2.4115c0-.0487-.00173-.0965-.00432-.1443h3.63582c.8359 0 1.5156-.6964 1.5156-1.553v-5.1585c0-3.66721-2.5174-6.74066-5.87512-7.5035z" fill="#626262" fill-rule="evenodd"/></svg>