<svg fill="none" height="15" viewBox="0 0 22 15" width="22" xmlns="http://www.w3.org/2000/svg"><path clip-rule="evenodd" d="m15.6436 5.91549c0 .35071-.2792.63381-.6227.63381h-1.0378c-.3435 0-.6216-.2831-.6216-.63381 0-.3507.2781-.6338.6216-.6338h1.0378c.3435 0 .6227.2831.6227.6338zm-10.11843 0c0 .35071-.27813.63381-.62267.63381h-1.03779c-.34454 0-.62163-.2831-.62163-.63381 0-.3507.27709-.6338.62163-.6338h1.03779c.34454 0 .62267.2831.62267.6338zm5.99323 0c0 1.1662-.9288 2.11268-2.0756 2.11268-1.14571 0-2.07557-.94648-2.07557-2.11268 0-1.16619.92986-2.11267 2.07557-2.11267 1.1468 0 2.0756.94648 2.0756 2.11267zm9.2373 7.39441c0 .2292-.191.4225-.4162.4225h-15.56673c-.22416 0-.41511-.1933-.41511-.4225v-1.4789h12.86854c.9153 0 1.6604-.7574 1.6604-1.6902v-5.70418h1.4529c.2252 0 .4162.19331.4162.42254zm-19.09628-2.7465c-.22831 0-.41512-.1891-.41512-.4226v-8.45066c0-.23345.18681-.42253.41512-.42253h15.56678c.2293 0 .4161.18908.4161.42253v8.45066c0 .2335-.1868.4226-.4161.4226zm18.68008-7.39439h-1.4529v-1.47887c0-.932746-.7451-1.69014-1.6604-1.69014h-15.56678c-.915328 0-1.65942.757394-1.65942 1.69014v8.45066c0 .9328.744092 1.6902 1.65942 1.6902h1.45393v1.4789c0 .9327.7441 1.6901 1.65942 1.6901h15.56673c.9154 0 1.6605-.7574 1.6605-1.6901v-8.45075c0-.93274-.7451-1.69014-1.6605-1.69014z" fill="#ff7643" fill-rule="evenodd"/></svg>