<svg height="512px" preserveAspectRatio="xMidYMid meet" viewBox="0 0 512 512" width="512px" xmlns="http://www.w3.org/2000/svg"><g transform="matrix(.1 0 0 -.1 0 512)"><path d="m93 5094c-62-37-93-95-93-174 0-80 31-138 94-175 41-24 50-25 199-25 86 0 179-5 208-11 63-14 122-63 143-122 12-34 476-2589 476-2623 0-5-26-22-58-38-126-65-248-223-287-372-19-74-19-233 0-307 42-162 161-309 311-384 45-22 86-42 93-44 9-3 8-19-4-64-20-77-19-230 1-308 53-206 225-378 430-431 79-20 228-21 307 0 208 54 377 223 431 431 20 75 21 230 2 301l-13 52h627 627l-13-52c-19-71-18-226 2-301 53-206 225-378 430-431 79-20 228-21 307 0 209 54 377 223 432 435 24 89 17 272-13 348l-21 54 24 42c54 91 23 223-62 277l-38 23-1660 5c-1597 5-1661 6-1695 24-75 40-110 96-110 176s35 136 110 176c34 18 93 19 1510 24l1475 5 70 29c145 60 263 166 324 292 24 49 92 292 244 863 200 759 210 801 215 906 3 82 0 126-13 174-52 202-205 363-410 432-33 11-357 15-1810 19l-1770 5-32 180c-36 205-55 260-119 356-57 86-129 150-219 195-116 57-155 64-395 64-212 0-216 0-257-26zm4512-1200c70-38 105-95 105-171-1-76-401-1584-434-1633-14-22-45-50-69-62l-42-23-1317-3c-725-1-1318 1-1318 6s-76 435-170 956c-93 520-170 949-170 951 0 3 759 4 1688 3l1687-3zm-2757-3123c67-34 102-93 102-171 0-111-79-190-190-190s-190 79-190 190 77 189 188 190c33 0 67-7 90-19zm2400 0c67-34 102-93 102-171 0-111-79-190-190-190s-190 79-190 190 77 189 188 190c33 0 67-7 90-19z"/><path d="m2453 3134c-62-37-93-95-93-174 0-80 31-138 94-175l43-25h463 463l43 25c63 37 94 95 94 175s-31 138-94 175l-43 25h-464-464z"/></g></svg>