<svg fill="none" height="14" viewBox="0 0 14 14" width="14" xmlns="http://www.w3.org/2000/svg"><path clip-rule="evenodd" d="m9.14821 5.41205-1.58755 1.58762 1.58755 1.58828c.15453.15388.15453.40483 0 .55937-.07727.07727-.17897.11623-.28066.11623-.10038 0-.20208-.03896-.28-.11623l-1.58755-1.58762-1.58755 1.58762c-.07726.07727-.17962.11623-.28.11623-.1017 0-.20339-.03896-.28066-.11623-.15453-.15454-.15453-.40549 0-.55937l1.58755-1.58828-1.58755-1.58762c-.15453-.15388-.15453-.40483 0-.56003.15519-.15453.40547-.15453.56066 0l1.58755 1.58762 1.58755-1.58762c.15585-.15453.40679-.15387.56066 0 .15453.1552.15453.40615 0 .56003zm-2.14821 7.79615c-3.4234 0-6.207547-2.785-6.207547-6.20853 0-3.4229 2.784147-6.20784 6.207547-6.20784s6.2075 2.78494 6.2075 6.20784c0 3.42353-2.7841 6.20853-6.2075 6.20853zm0-13.2082c-3.85991 0-7 3.14024-7 6.99967 0 3.86013 3.14009 7.00033 7 7.00033 3.8599 0 7-3.1402 7-7.00033 0-3.85943-3.1401-6.99967-7-6.99967z" fill="#ff4848" fill-rule="evenodd"/></svg>