<svg fill="none" height="17" viewBox="0 0 16 17" width="16" xmlns="http://www.w3.org/2000/svg"><path d="m15.9988 8.3441c0-.67115-.0545-1.16091-.1723-1.66881h-7.6639v3.02924h4.4985c-.0906.75277-.5804 1.88657-1.6688 2.64837l-.0152.1014 2.4231 1.8772.1679.0167c1.5418-1.4239 2.4307-3.519 2.4307-6.0041z" fill="#4285f4"/><path d="m8.16265 16.3254c2.20395 0 4.05415-.7256 5.40555-1.9772l-2.5758-1.9954c-.6893.4807-1.61444.8163-2.82975.8163-2.15857 0-3.99063-1.4239-4.64371-3.392l-.09573.00813-2.519654 1.94997-.032951.0916c1.342295 2.6665 4.099495 4.4986 7.292045 4.4986z" fill="#34a853"/><path d="m3.519 9.77716c-.17232-.50789-.27205-1.05211-.27205-1.61441 0-.56235.09973-1.10651.26299-1.61441l-.00457-.10817-2.551229-1.98131-.083472.03971c-.553227 1.10651-.870669 2.34908-.870669 3.66418s.317442 2.55765.870669 3.66415z" fill="#fbbc05"/><path d="m8.16265 3.15623c1.53276 0 2.56665.66208 3.15625 1.21537l2.3037-2.24929c-1.4149-1.315104-3.256-2.12231-5.45995-2.12231-3.19255 0-5.94975 1.83206-7.292045 4.49853l2.639265 2.04978c.66215-1.96812 2.49421-3.39208 4.65278-3.39208z" fill="#eb4335"/></svg>