<svg height="512px" preserveAspectRatio="xMidYMid meet" viewBox="0 0 512 512" width="512px" xmlns="http://www.w3.org/2000/svg"><g transform="matrix(.1 0 0 -.1 0 512)"><path d="m1884 5105c-104-22-191-71-275-155-85-84-130-161-158-272-10-38-22-72-27-77s-128-71-274-146c-146-76-298-161-339-188-206-138-383-370-460-602-70-211-65-87-68-1670-2-1149-1-1435 10-1455 7-14 27-34 44-45l32-20 1-197c0-214 5-240 51-264 41-21 667-21 708 0 46 24 51 50 51 266 0 116 4 200 9 200 26 0 71 54 77 91 4 22 9 38 13 37 3-2 27-14 54-28l47-24v-238c0-256 4-279 51-304 42-21 2216-21 2258 0 47 25 51 48 51 304v238l48 24c26 14 50 26 53 28 4 1 9-15 13-37 6-37 51-91 77-91 5 0 9-84 9-200 0-216 5-242 51-266 41-21 667-21 708 0 46 24 51 50 51 264l1 197 32 20c17 11 37 31 44 45 11 20 13 305 10 1455-3 1326-4 1435-21 1505-63 270-175 471-357 644-114 108-178 149-480 306-140 73-263 138-274 145-14 8-25 32-33 71-21 105-74 199-160 283-87 87-170 133-279 156-95 20-1256 20-1349 0zm1028-217c-11-18-93-152-181-298-89-146-166-265-171-265s-82 119-171 265c-88 146-170 280-181 298l-20 32h372 372zm-776-267c95-157 172-286 171-288-2-1-153 60-336 135l-333 137 6 30c20 98 123 217 221 255 91 35 79 47 271-269zm1121 267c96-36 199-155 219-253l6-31-333-137c-183-75-334-135-336-134-2 2 268 451 333 555 18 28 38 28 111 0zm-1417-582 275-114 5-393c5-414 7-426 51-450 42-22 91-14 121 20l28 31v350c0 193 4 350 8 350 5 0 53-18 107-40s110-40 125-40 71 18 125 40 102 40 107 40c4 0 8-207 8-461v-461l29-29c46-45 131-35 158 19 4 9 10 244 13 520l5 504 290 119 290 119 225-116c124-64 229-120 234-125 5-4-9-69-33-151-82-286-133-585-151-889-12-220-13-500-1-532 27-70 109-90 160-39l28 27 6 295c7 299 21 473 58 679 39 222 110 491 130 491 18 0 174-163 218-229 91-134 150-293 171-461 6-54 10-551 10-1392v-1308h-295-295v550c0 615 3 589-69 611-31 9-43 8-69-5-57-29-57-25-62-486-5-412-6-426-27-465-27-51-85-106-143-136l-45-24h-1075-1075l-45 24c-58 30-116 85-143 136l-22 40-6 1135c-5 959-8 1156-22 1272-32 273-71 470-137 701-22 77-40 143-40 147 0 14 463 250 480 245 8-3 139-56 290-119zm-885-471c40-162 67-314 91-505 16-120 18-279 21-1392l4-1258h-295-296v1308c0 841 4 1338 10 1392 30 245 126 440 303 614l91 89 18-54c10-30 34-117 53-194zm2585-3475v-160h-980-980v160 160h980 980zm-2560-20v-140h-205-205v140 140h205 205zm3570 0v-140h-205-205v140 140h205 205z"/><path d="m3904 2281c-45-27-61-79-39-124 30-63 107-77 156-28 51 51 33 137-33 160-42 15-48 14-84-8z"/><path d="m2099 1962c-26-23-32-37-39-95-21-167-128-276-293-297-62-8-76-13-99-40-39-42-38-92 1-131 26-25 37-29 88-29 73 0 161 22 227 58 113 61 217 186 252 302l18 60h306 306l18-60c48-161 210-311 376-349 25-6 71-11 103-11 52 0 62 4 88 29 39 39 40 89 1 131-23 27-37 32-99 40-165 21-272 130-293 297-7 58-13 72-39 95l-31 28h-430-430z"/></g></svg>