<svg height="512px" preserveAspectRatio="xMidYMid meet" viewBox="0 0 512 512" width="512px" xmlns="http://www.w3.org/2000/svg"><g transform="matrix(.1 0 0 -.1 0 512)"><path d="m1760 5030c-91-49-175-101-188-116-21-24-23-35-21-112l3-86-319-118c-176-65-356-136-401-158-213-107-392-313-470-543-55-161-54-127-54-1604 0-1450-1-1409 45-1426 13-6 15-36 15-206 0-197 0-200 24-228l24-28 321-3 320-3 33 30c31 28 33 33 36 109l4 81 74-56 74-56v-213c0-144 4-222 12-239 26-58-37-55 1268-55s1242-3 1268 55c8 17 12 95 12 239v213l70 52c39 29 71 58 72 64 0 7 4-28 7-77 6-84 8-90 39-117l33-30 320 3 321 3 24 28c24 28 24 31 24 228 0 170 2 200 15 206 46 17 45-24 45 1426 0 1496 2 1450-60 1618-83 229-254 423-464 529-45 22-225 94-401 159l-320 118 4 86c3 84 2 87-25 115-16 15-101 67-190 115l-160 87h-635-634zm1238-120c-8-24-433-840-438-840s-430 816-438 840c-3 7 147 10 438 10s441-3 438-10zm-882-425c112-215 203-393 204-397 0-11-79 20-149 58-216 119-360 317-408 560-9 46-14 86-12 88 13 13 146 84 153 82 5-1 100-177 212-391zm1181 351 73-38-6-42c-18-128-78-279-149-376-42-58-146-157-210-200-49-34-196-103-203-95-2 2 62 131 143 287 224 432 266 509 273 506 4-2 40-20 79-42zm-1663-383c123-299 426-537 754-593l72-12v-600-600l34-34c50-50 115-43 149 16 15 25 17 86 17 619v591h60c72 0 109-17 147-67l28-36 3-1482 2-1481-23-44c-30-57-89-90-164-90h-53v580c0 630 1 623-55 648-33 15-57 15-90 0-56-25-55-18-55-648v-581l-498 3-497 3-67 33c-83 41-158 120-189 200-18 48-23 83-27 216l-4 158 441 442 441 442v43c0 43-2 46-167 213-93 93-180 176-195 184-62 32-68 28-293-196-116-115-214-210-218-210s-7 220-7 489v490l-23 26c-14 17-36 28-63 32-36 5-46 1-75-25l-34-30-3-1051-2-1051h-235-235l2 1333c4 1502-4 1367 85 1547 39 79 61 109 137 186 60 60 115 104 161 130 53 29 676 271 706 273 3 1 18-29 33-66zm2197-48c394-146 428-163 550-285 82-81 102-108 142-190 89-181 81-45 85-1547l2-1333h-235-235l-2 1051-3 1051-34 30c-29 26-39 30-75 25-27-4-49-15-63-32l-23-26v-490c0-269-3-489-7-489s-102 95-218 210c-225 224-231 228-293 196-15-8-92-80-172-160l-145-146-5 747-5 748-28 60c-16 33-39 72-53 86l-25 26 70 42c183 108 317 252 404 433 29 59 53 107 54 108 1 0 142-52 314-115zm-2094-2147 83-83-312-312c-172-172-316-313-320-313-5 0-8 73-8 162v163l232 232c128 128 235 233 238 233 2 0 42-37 87-82zm1970-150 233-233v-162c0-90-3-163-7-163-5 0-149 141-320 312l-313 313 82 82c46 46 85 83 88 83s110-105 237-232zm230-1013c-3-135-7-169-26-217-31-80-106-159-189-200l-67-33-296-3-297-3 19 61c18 58 19 100 19 728v667l421-420 421-420zm-3007-370v-125h-180-180v125 125h180 180zm3620 0v-125h-180-180v125 125h180 180zm-910-405v-120h-1080-1080v120 120h1080 1080z"/><path d="m2514 2319c-60-30-67-117-13-163 82-69 192 20 147 119-21 46-85 67-134 44z"/></g></svg>