<svg height="512px" preserveAspectRatio="xMidYMid meet" viewBox="0 0 512 512" width="512px" xmlns="http://www.w3.org/2000/svg"><g transform="matrix(.1 0 0 -.1 0 512)"><path d="m1149 5105c-47-26-50-47-49-354l1-286-31-89c-62-180-111-414-130-626-5-63-10-260-10-438 0-350 2-366 55-390 51-23 107-7 131 39 11 22 14 79 14 263v234l53 12c28 7 94 32 145 56 162 78 288 228 344 412 17 56 21 103 25 285l5 217h379 379v-423-423l-190-1660c-104-912-193-1676-196-1696l-6-38h-469-469v965c0 1049 2 1007-55 1033-33 15-57 15-90 0-57-26-55 22-55-1092 0-773 3-1031 12-1051 25-56 17-55 653-55 632 0 628 0 652 52 6 14 78 608 159 1321 82 713 151 1297 154 1297s72-583 153-1297c82-713 154-1307 160-1320 24-53 19-53 652-53 636 0 628-1 653 55 16 34 17 3507 2 3690-18 212-66 443-130 630l-31 90 1 286c1 310-2 329-51 355-41 21-2781 20-2820-1zm521-325v-140h-185-185v140 140h185 185zm570 0v-140h-185-185v140 140h185 185zm440 0v-140h-120-120v140 140h120 120zm570 0v-140h-185-185v140 140h185 185zm570 0v-140h-185-185v140 140h185 185zm-2322-547c-6-252-17-295-111-415-46-59-189-148-237-148-39 0 25 380 106 632l45 138h100 101zm1362-36c0-270-7-312-60-386-27-37-110-101-132-101-4 0-8 164-8 365v365h100 100zm563 26c5-247 14-289 80-418 62-118 164-217 288-277 52-26 118-52 147-58l52-12v-1629-1629h-469-469l-6 38c-3 20-87 746-186 1612s-182 1591-186 1611c-5 37-5 37 45 54 158 52 295 207 330 373 6 30 11 159 11 302v250h179 179zm441 79c81-252 145-632 106-632-48 0-191 89-237 148-94 120-105 163-111 415l-4 207h101 100z"/><path d="m981 2646c-49-27-64-86-34-136 38-66 134-65 169 1 46 91-47 184-135 135z"/></g></svg>