<svg fill="none" height="18" viewBox="0 0 15 18" width="15" xmlns="http://www.w3.org/2000/svg"><path clip-rule="evenodd" d="m7.5 9.3384c-1.11737 0-2.02697-.91457-2.02697-2.03803s.9096-2.03802 2.02697-2.03802 2.02697.91456 2.02697 2.03802-.9096 2.03803-2.02697 2.03803zm0-5.09506c-1.67563 0-3.04045 1.37142-3.04045 3.05703 0 1.68562 1.36482 3.05703 3.04045 3.05703s3.0405-1.37141 3.0405-3.05703c0-1.68561-1.36487-3.05703-3.0405-3.05703zm4.5894 7.91176-4.5894 4.6144-4.5894-4.6144c-2.530332-2.54412-2.530332-6.68385 0-9.22799 1.26517-1.27291 2.92644-1.90895 4.5894-1.90895 1.66212 0 3.3242.63689 4.5894 1.90895 2.5303 2.54414 2.5303 6.68387 0 9.22799zm.717-9.94894c-2.9264-2.941547-7.6864-2.941547-10.61284 0-2.924747 2.94155-2.924747 7.72836 0 10.66994l4.94834 4.9744c.09882.1002.22888.1495.3581.1495s.25928-.0493.3581-.1495l4.9483-4.9744c2.9248-2.94158 2.9248-7.72839 0-10.66994z" fill="#626262" fill-rule="evenodd"/></svg>