<svg fill="none" height="18" viewBox="0 0 15 18" width="15" xmlns="http://www.w3.org/2000/svg"><path clip-rule="evenodd" d="m9.24419 11.5472c0 .9373-.7814 1.6981-1.74419 1.6981s-1.74419-.7608-1.74419-1.6981c0-.9374.7814-1.69814 1.74419-1.69814s1.74419.76074 1.74419 1.69814zm4.70931 2.5471c0 1.592-1.33 2.8868-2.9651 2.8868h-6.97677c-1.63518 0-2.96512-1.2948-2.96512-2.8868v-5.0943c0-1.59198 1.32994-2.88679 2.96512-2.88679h6.97677c1.6351 0 2.9651 1.29481 2.9651 2.88679zm-9.41862-10.18864c0-1.59198 1.32995-2.88679 2.96512-2.88679.78488 0 1.53139.30056 2.09477.84141.56163.55359.87033 1.28038.87033 2.04538v1.18868h-5.93022zm6.97672 1.22179v-1.22179c0-1.03415-.416-2.01481-1.1764-2.76538-.7666-.73528-1.77299-1.14028-2.8352-1.14028-2.2125 0-4.01163 1.7516-4.01163 3.90566v1.22179c-1.9657.25047-3.48837 1.8917-3.48837 3.87255v5.0943c0 2.1541 1.79913 3.9057 4.01163 3.9057h6.97677c2.2116 0 4.0116-1.7516 4.0116-3.9057v-5.0943c0-1.98085-1.5227-3.62208-3.4884-3.87255z" fill="#757575" fill-rule="evenodd"/></svg>