<svg fill="none" height="13" viewBox="0 0 18 13" width="18" xmlns="http://www.w3.org/2000/svg"><path clip-rule="evenodd" d="m15.3576 3.39368c.1639.23007.1121.55079-.1172.71586l-5.43164 3.92908c-.23604.17191-.51455.25743-.7922.25743-.27596 0-.55276-.08467-.78881-.25401l-5.46734-3.93165c-.2284-.16421-.2819-.48493-.11887-.71585.16388-.23092.48229-.2848.71069-.11888l5.46649 3.93079c.11802.08467.2768.08552.39568-.00086l5.4325-3.92908c.2284-.16677.5468-.11204.7107.11717zm1.6243 7.38262c0 .6603-.534 1.1982-1.1887 1.1982h-13.58555c-.6555 0-1.18873-.5379-1.18873-1.1982v-8.55262c0-.66026.53323-1.19736 1.18873-1.19736h13.58555c.6547 0 1.1887.5371 1.1887 1.19736zm-1.1887-10.7763h-13.58555c-1.217603 0-2.20765.998092-2.20765 2.22368v8.55262c0 1.2265.990047 2.2237 2.20765 2.2237h13.58555c1.2168 0 2.2068-.9972 2.2068-2.2237v-8.55262c0-1.225588-.99-2.22368-2.2068-2.22368z" fill="#757575" fill-rule="evenodd"/></svg>