<svg fill="none" height="18" viewBox="0 0 11 18" width="11" xmlns="http://www.w3.org/2000/svg"><path clip-rule="evenodd" d="m6.33333 15.0893c0 .4695-.37333.8491-.83333.8491s-.83333-.3796-.83333-.8491c0-.4696.37333-.8491.83333-.8491s.83333.3795.83333.8491zm.5-12.45795c0 .2819-.22333.50946-.5.50946h-1.66666c-.27667 0-.5-.22756-.5-.50946s.22333-.50861.5-.50861h1.66666c.27667 0 .5.22671.5.50861zm3.16667 13.16095c0 .6556-.52333 1.1896-1.16667 1.1896h-6.66666c-.64334 0-1.16667-.534-1.16667-1.1896v-13.5855c0-.65465.52333-1.18873 1.16667-1.18873h6.66666c.64334 0 1.16667.53408 1.16667 1.18873zm-1.16667-15.7923h-6.66666c-1.195003 0-2.16667.990047-2.16667 2.2068v13.5855c0 1.2177.971667 2.2077 2.16667 2.2077h6.66666c1.19497 0 2.16667-.99 2.16667-2.2077v-13.5855c0-1.216753-.9717-2.2068-2.16667-2.2068z" fill="#626262" fill-rule="evenodd"/></svg>