<svg fill="none" height="20" viewBox="0 0 18 20" width="18" xmlns="http://www.w3.org/2000/svg"><path clip-rule="evenodd" d="m10.7812 15.6604v-8.49059c0-.31321.2522-.56604.5626-.56604.3112 0 .5624.25283.5624.56604v8.49059c0 .3132-.2512.566-.5624.566-.3104 0-.5626-.2528-.5626-.566zm-4.68745 0v-8.49059c0-.31321.25219-.56604.5625-.56604.31125 0 .5625.25283.5625.56604v8.49059c0 .3132-.25125.566-.5625.566-.31031 0-.5625-.2528-.5625-.566zm8.90625.9434c0 1.2481-1.0097 2.2641-2.25 2.2641h-7.5c-1.24031 0-2.25-1.016-2.25-2.2641v-12.64154h12zm-7.78125-15.09437c0-.20849.16781-.37735.375-.37735h2.81245c.2072 0 .375.16886.375.37735v1.32076h-3.56245zm10.21875 1.32076h-5.5313v-1.32076c0-.832071-.6731-1.50943-1.5-1.50943h-2.81245c-.82687 0-1.5.677359-1.5 1.50943v1.32076h-5.53125c-.310313 0-.5625.25283-.5625.56604 0 .3132.252187.56603.5625.56603h1.3125v12.64154c0 1.8726 1.51406 3.3962 3.375 3.3962h7.5c1.8609 0 3.375-1.5236 3.375-3.3962v-12.64154h1.3125c.3113 0 .5625-.25283.5625-.56603 0-.31321-.2512-.56604-.5625-.56604z" fill="#ff4848" fill-rule="evenodd"/></svg>