<svg fill="none" height="16" viewBox="0 0 16 16" width="16" xmlns="http://www.w3.org/2000/svg"><path clip-rule="evenodd" d="m14.8331 14.6608c-.206.2571-.5276.4105-.8602.4105h-11.94575c-.33269 0-.65428-.1534-.86023-.4105-.194061-.2417-.260598-.5337-.188516-.8226.797646-3.1633 3.684866-5.37308 7.021996-5.37308 3.3363 0 6.2235 2.20978 7.0212 5.37308.0721.2889.0055.5809-.1885.8226zm-10.21102-10.42785c0-1.82098 1.51529-3.303483 3.37832-3.303483 1.86223 0 3.3775 1.482503 3.3775 3.303483 0 1.82175-1.51527 3.3027-3.3775 3.3027-1.86303 0-3.37832-1.48095-3.37832-3.3027zm11.32232 9.38295c-.7161-2.8411-2.9213-5.00129-5.6873-5.77275 1.2412-.74512 2.0713-2.08433 2.0713-3.6102 0-2.33374-1.9414-4.23295-4.328-4.23295-2.3874 0-4.32885 1.89921-4.32885 4.23295 0 1.52587.83013 2.86508 2.07135 3.6102-2.76602.77146-4.971235 2.93165-5.6872962 5.77275-.1417865.5631-.0095053 1.1533.3635752 1.6173.389715.488.976661.7668 1.607971.7668h11.94575c.6313 0 1.2182-.2788 1.6079-.7668.3731-.464.5054-1.0542.3636-1.6173z" fill="#626262" fill-rule="evenodd"/></svg>